#FILENAME=b40a750c
# xmcd CD database file
# Copyright (C) 1995-1998 Ti Kan
#
# Track frame offsets:
#	150
#	17825
#	32475
#	49923
#	63835
#	80935
#	98829
#	114117
#	134128
#	149145
#	170734
#	193891
#
# Disc length: 2679 seconds
#
# Revision: 34545996
# Submitted via:  QuintessentialCD v1.27 (c) 1998-99 Paul Quinn
#
DISCID=b40a750c
DTITLE=Various Artists / D.J. Mix 99
TTITLE0=Wyclef Jean / Gone Till November (The Makin' Runs Remix)
TTITLE1=Destiny's Child / No, No, No (Part 2)
TTITLE2=Los Umbrellos / No Tengo Dinero
TTITLE3=S.O.A.P. / This Is How We Party
TTITLE4=Jermaine Dupri / The Party Continues (Video Version)
TTITLE5=Sylk-E. Fyne / Romeo And Juliet
TTITLE6=React / Can't Keep My Hands Off You (Radio Mix)
TTITLE7=Hannah Jones / You Only Have To Say You Love Me
TTITLE8=Space Monkeys / Sugar Cane
TTITLE9=7 Mile / Do Your Thing
TTITLE10=Blacksreet / Don't Leave Me
TTITLE11=DJ Mix '99 Outro
EXTD=\nYEAR: 1999  ID3G:  17
EXTT0=Wyclef Jean featuring Canibus
EXTT1=Destiny's Child featuring Wyclef Jean
EXTT2=Los Umbrellos
EXTT3=S.O.A.P.
EXTT4=Jermaine Dupri featuring Da Brat & Usher
EXTT5=Sylk-E. Fyne featuring Chill
EXTT6=React
EXTT7=Hannah Jones
EXTT8=Space Monkeys
EXTT9=7 Mile
EXTT10=Blackstreet
EXTT11=
PLAYORDER=
